<?xml version="1.0" encoding="utf-8"?>
<!-- Generator: Adobe Illustrator 19.0.0, SVG Export Plug-In . SVG Version: 6.00 Build 0)  -->
<svg version="1.1" id="Layer_2" xmlns="http://www.w3.org/2000/svg" xmlns:xlink="http://www.w3.org/1999/xlink" x="0px" y="0px"
	 viewBox="-226 378.7 158 37.3" style="enable-background:new -226 378.7 158 37.3;" xml:space="preserve">
<style type="text/css">
	.st0{fill:#FFFFFF;}
</style>
<g>
	<path class="st0" d="M-197.1,390.8c0,0,1.3,1.8-0.4,4.1c0,0-0.3-1.2-2.8-1.2h-3.1c-2.9,0-5.1-2.8-3.8-5.7c0,0-2.1,0.2-2.8-1.1
		c-0.7-1.3,0-1.8,1.1-1.8c1,0,5.2,0,5.2,0c0,0.9,1.8,1.1,1.8,0h2.9c0,0,2.2,0,2.2,1.9c0,0-0.5-0.3-1-0.3v0.5c0,0,0.6,0.1,0.9,0.3
		c0.3,0.2,0.7,0.6,0.3,1.6c-0.4,1.1-0.5,1.4-0.5,1.4s-0.6-0.5-1.6-0.5h-1.2c-2.1,0-1.7,2,0.4,2S-197.1,390.8-197.1,390.8z"/>
	<path class="st0" d="M-208.2,388.7c0,0-0.7,0-1.2-0.4c0,0-4.7,3.6,2.3,11s1.6,12.1,1.6,12.1s1.3,1.2,0.5,3.6c0,0,2.9-1.6,5.1-4.4
		c3.2-4,5.1-10.1-3.6-15C-203.5,395.5-209.3,392.5-208.2,388.7z"/>
	<path class="st0" d="M-201,384.4c0,0-0.9-1.7-3.1-1.7c-1.7,0-2.1-0.9-2.1-0.9s-0.8-1.4-4.5-1.4c-3.5,0-5.8,1.2-7.7,2.7
		c0,0,5.1-3.2,10.1,1.3H-201z"/>
	<path class="st0" d="M-222.1,395c0.1-5.2,4.1-10.8,12.8-10.5c-8.5-7.2-23.1,8.8-11,17.2C-220.3,401.7-222.4,398.9-222.1,395z"/>
	<path class="st0" d="M-210.6,385.1c-10.6-0.3-14.3,12.3-7.5,18l6.8,3.3c0,0,0.9-2.9-2.4-6.2s-6.5-9.7,2.7-13.8
		C-211,386.4-211.2,385.5-210.6,385.1z"/>
	<path class="st0" d="M-210,387.9c0,0-0.5-0.5-0.7-0.9c-7.9,3.3-6.6,8.8-1.9,13.5c2.9,3,2,6.2,2,6.2s3.5,2.2,4.7,4.1
		c0,0,5.1-4.3-2-11.5C-214.8,392.2-210,387.9-210,387.9z"/>
</g>
<g>
	<path class="st0" d="M-186.6,406.5c-1-0.3-1.9-0.7-2.5-1.3c-0.7-0.5-1-1.2-1-1.9v-3.1h0.5c0.3,1.9,1,3.4,1.9,4.2
		c0.9,0.8,2.3,1.3,3.9,1.3c1.1,0,2-0.3,2.7-0.8s1.1-1.3,1.1-2.2c0-0.8-0.3-1.5-0.8-2.1s-1.3-1.2-2.5-1.9l-3.6-2.1
		c-1.2-0.7-2.1-1.5-2.6-2.3c-0.5-0.8-0.8-1.7-0.8-2.8c0-1.5,0.5-2.7,1.6-3.6c1-0.9,2.4-1.4,4.1-1.4c1,0,2,0.1,3,0.4
		c1,0.3,1.8,0.7,2.4,1.2c0.6,0.5,1,1.2,1,1.9v3.1h-0.5c-0.3-1.9-1-3.3-1.9-4.2c-0.9-0.8-2.2-1.3-3.9-1.3c-0.9,0-1.7,0.3-2.4,0.8
		c-0.7,0.5-1,1.3-1,2.1c0,0.8,0.2,1.5,0.7,2s1.3,1.1,2.5,1.8l3.6,2.1c1.3,0.8,2.3,1.5,2.8,2.2c0.5,0.7,0.8,1.5,0.8,2.6
		c0,1.6-0.5,2.9-1.6,3.9c-1.1,1-2.6,1.5-4.4,1.5C-184.5,406.9-185.5,406.8-186.6,406.5z"/>
	<path class="st0" d="M-173.5,396.2c0-1-0.1-1.7-0.4-2.2c-0.3-0.5-0.8-0.7-1.6-0.7h-0.6v-0.6h2.6c0.7,0,1.3,0.1,1.6,0.3
		c0.4,0.2,0.6,0.5,0.8,1c0.2,0.5,0.2,1.2,0.2,2.2v10.2h-2.6V396.2z M-173.6,390.4c-0.3-0.4-0.5-0.8-0.5-1.3c0-0.4,0.1-0.7,0.4-1
		c0.2-0.2,0.6-0.4,1-0.4s0.8,0.2,1.2,0.6c0.4,0.4,0.5,0.8,0.5,1.3c0,0.4-0.1,0.7-0.4,1c-0.2,0.2-0.6,0.4-1,0.4
		C-172.9,390.9-173.2,390.8-173.6,390.4z"/>
	<path class="st0" d="M-166.3,396.2c0-1-0.1-1.7-0.4-2.2s-0.8-0.7-1.6-0.7h-0.7v-0.6h2.6c0.7,0,1.3,0.1,1.7,0.3
		c0.4,0.2,0.7,0.5,0.8,0.9h0.1c0.4-0.4,0.9-0.8,1.6-1c0.7-0.3,1.4-0.4,2.2-0.4c1.5,0,2.7,0.4,3.6,1.2s1.4,2.1,1.4,4.1v8.8h-2.6v-8.9
		c0-1.4-0.3-2.4-0.9-3c-0.6-0.6-1.4-0.9-2.3-0.9c-1,0-2,0.5-2.9,1.5v11.2h-2.6L-166.3,396.2L-166.3,396.2z"/>
	<path class="st0" d="M-150.5,411.2c-1.2-0.7-1.7-1.9-1.7-3.4c0-0.9,0.3-1.7,0.9-2.3c0.6-0.7,1.4-1.1,2.3-1.5
		c-0.8-0.4-1.2-1-1.2-1.8c0-0.4,0.1-0.7,0.3-0.9c0.2-0.2,0.4-0.4,0.8-0.7c-0.6-0.3-1.1-0.8-1.6-1.5c-0.4-0.7-0.6-1.4-0.6-2.3
		c0-2.9,1.9-4.4,5.6-4.4h5.4v0.7l-1.9,0.3v0.1c0.6,0.3,1.1,0.7,1.5,1.3s0.6,1.2,0.6,1.9c0,2.9-1.9,4.4-5.6,4.4c-2,0-3.1,0.3-3.1,1
		c0,0.7,1,1,3.1,1c1.9,0,3.4,0.4,4.6,1.1c1.2,0.8,1.8,1.9,1.8,3.4c0,1.6-0.6,2.7-1.7,3.4c-1.2,0.7-2.7,1.1-4.7,1.1
		C-147.8,412.3-149.3,411.9-150.5,411.2z M-143,410.3c0.7-0.6,1-1.4,1-2.5c0-1.9-1.2-3.1-3.5-3.4l-1.6-0.1c-0.8,0.3-1.4,0.8-1.8,1.3
		c-0.4,0.5-0.6,1.3-0.6,2.2c0,1.1,0.3,2,1,2.5s1.6,0.8,2.8,0.8S-143.7,410.8-143,410.3z M-143.7,399.3c0.5-0.5,0.8-1.4,0.8-2.6
		c0-1.1-0.3-1.9-0.8-2.5s-1.2-0.8-2.1-0.8c-0.9,0-1.6,0.3-2.1,0.8s-0.8,1.4-0.8,2.6c0,1.2,0.3,2,0.8,2.6c0.5,0.5,1.2,0.8,2.1,0.8
		C-144.9,400.1-144.2,399.9-143.7,399.3z"/>
	<path class="st0" d="M-135.1,406.3c-0.6-0.3-1.2-0.7-1.7-1.3c-0.5-0.6-0.7-1.4-0.7-2.4c0-1.5,0.7-2.5,2.1-3.2
		c1.4-0.6,3.2-0.9,5.4-0.9h0.9c0-1.9-0.3-3.2-0.8-3.9c-0.5-0.7-1.3-1.1-2.3-1.1c-0.9,0-1.6,0.2-2.1,0.6s-0.9,1-1.1,1.9h-1.3
		c0-0.7,0-1.2,0.1-1.6c0.1-0.4,0.3-0.7,0.6-1.1c0.4-0.4,0.9-0.6,1.7-0.8c0.8-0.2,1.7-0.2,2.6-0.2c1.6,0,2.8,0.4,3.7,1.3
		c0.9,0.8,1.4,2.5,1.4,4.9v7.9h-1.4l-1-1.3h-0.1c-0.4,0.4-0.9,0.8-1.5,1.1c-0.7,0.3-1.5,0.5-2.5,0.5
		C-133.9,406.7-134.5,406.6-135.1,406.3z M-130.3,404.9c0.4-0.3,0.8-0.7,1.2-1.3v-3.9h-0.9c-1.4,0-2.6,0.3-3.4,0.8
		c-0.8,0.5-1.3,1.2-1.3,2.1s0.3,1.6,0.8,2.1s1.2,0.7,2,0.7C-131.3,405.4-130.7,405.2-130.3,404.9z"/>
	<path class="st0" d="M-122,396.2c0-1-0.1-1.7-0.4-2.2s-0.8-0.7-1.6-0.7h-0.6v-0.6h2.6c0.7,0,1.3,0.1,1.7,0.3c0.4,0.2,0.6,0.5,0.8,1
		h0.1c0.4-0.4,0.8-0.8,1.5-1.1c0.6-0.3,1.5-0.5,2.5-0.5c1.7,0,3,0.7,3.9,2c0.9,1.4,1.4,3.1,1.4,5.1c0,2.1-0.5,3.8-1.4,5.1
		c-0.9,1.3-2.3,2-4.1,2c-0.7,0-1.4-0.1-2-0.2c-0.6-0.2-1.1-0.4-1.7-0.6v6.1h-2.7V396.2z M-113.8,403.9c0.6-1.1,0.9-2.5,0.9-4.4
		c0-1.8-0.3-3.2-0.8-4.3s-1.4-1.7-2.5-1.7c-1.3,0-2.3,0.6-3.1,1.8v9.4c0.6,0.3,1.1,0.5,1.5,0.6c0.4,0.2,0.8,0.2,1.3,0.2
		C-115.4,405.5-114.4,405-113.8,403.9z"/>
	<path class="st0" d="M-104.5,405.8c-1-0.6-1.7-1.5-2.2-2.6s-0.8-2.3-0.8-3.6c0-1.3,0.3-2.5,0.8-3.6c0.5-1.1,1.2-2,2.2-2.6
		c1-0.6,2.1-0.9,3.4-0.9s2.5,0.3,3.4,0.9c1,0.6,1.7,1.5,2.2,2.6c0.5,1.1,0.8,2.3,0.8,3.6c0,1.3-0.3,2.5-0.8,3.6s-1.2,2-2.2,2.6
		s-2.1,0.9-3.4,0.9S-103.6,406.4-104.5,405.8z M-99.2,404.8c0.6-0.5,1-1.2,1.3-2.2c0.3-0.9,0.5-1.9,0.5-3s-0.2-2.1-0.5-3
		s-0.7-1.6-1.3-2.2c-0.6-0.5-1.2-0.8-1.9-0.8s-1.4,0.3-1.9,0.8c-0.6,0.5-1,1.2-1.3,2.2c-0.3,0.9-0.5,1.9-0.5,3s0.2,2.1,0.5,3
		s0.7,1.6,1.3,2.2c0.6,0.5,1.2,0.8,1.9,0.8S-99.7,405.3-99.2,404.8z"/>
	<path class="st0" d="M-91,396.2c0-1-0.1-1.7-0.4-2.2c-0.3-0.5-0.8-0.7-1.6-0.7h-0.3v-0.6h2.3c0.7,0,1.3,0.1,1.7,0.3
		c0.4,0.2,0.6,0.5,0.8,1h0.1c0.4-0.4,0.8-0.8,1.4-1.1c0.6-0.3,1.3-0.5,2.1-0.5s1.4,0.1,1.8,0.4c0.3,0.3,0.7,0.7,1,1.3l-1.2,0.9
		c-0.2-0.3-0.5-0.5-0.9-0.7c-0.4-0.1-0.9-0.2-1.4-0.2c-0.6,0-1.1,0.1-1.6,0.4c-0.5,0.3-0.9,0.6-1.2,1.1v10.8H-91V396.2z"/>
	<path class="st0" d="M-77.9,405.8c-0.9-0.6-1.6-1.5-2.1-2.6s-0.7-2.3-0.7-3.6c0-1.3,0.2-2.5,0.7-3.6c0.5-1.1,1.1-2,2-2.6
		c0.9-0.6,1.9-0.9,3.1-0.9c2,0,3.4,0.6,4.4,1.7s1.4,2.7,1.4,4.8l-0.1,1.2h-8.9c0,1.6,0.4,3,1.1,4c0.7,1,1.7,1.5,2.9,1.5
		c0.9,0,1.7-0.2,2.3-0.6s1.2-1,1.8-1.8l0.6,0.4c-0.6,1.1-1.4,1.9-2.3,2.3c-0.9,0.5-1.9,0.7-3,0.7C-75.9,406.7-77,406.4-77.9,405.8z
		 M-71.8,398.8c0-1.7-0.3-3-0.8-3.9c-0.5-0.9-1.3-1.3-2.3-1.3c-0.6,0-1.1,0.2-1.6,0.7s-0.8,1.1-1.1,1.9s-0.4,1.7-0.4,2.7h6.2V398.8z
		"/>
</g>
</svg>
