<?xml version="1.0" encoding="utf-8"?>
<!-- Generator: Adobe Illustrator 19.0.0, SVG Export Plug-In . SVG Version: 6.00 Build 0)  -->
<svg version="1.1" id="Layer_2" xmlns="http://www.w3.org/2000/svg" xmlns:xlink="http://www.w3.org/1999/xlink" x="0px" y="0px"
	 viewBox="0 0 158 37.3" style="enable-background:new 0 0 158 37.3;" xml:space="preserve">
<style type="text/css">
	.st0{fill:#DB0000;}
</style>
<g>
	<path class="st0" d="M28.9,12.1c0,0,1.3,1.8-0.4,4.1c0,0-0.3-1.2-2.8-1.2h-3.1c-2.9,0-5.1-2.8-3.8-5.7c0,0-2.1,0.2-2.8-1.1
		c-0.7-1.3,0-1.8,1.1-1.8c1,0,5.2,0,5.2,0c0,0.9,1.8,1.1,1.8,0H27c0,0,2.2,0,2.2,1.9c0,0-0.5-0.3-1-0.3v0.5c0,0,0.6,0.1,0.9,0.3
		s0.7,0.6,0.3,1.6c-0.4,1.1-0.5,1.4-0.5,1.4s-0.6-0.5-1.6-0.5h-1.2c-2.1,0-1.7,2,0.4,2S28.9,12.1,28.9,12.1z"/>
	<path class="st0" d="M17.8,10c0,0-0.7,0-1.2-0.4c0,0-4.7,3.6,2.3,11s1.6,12.1,1.6,12.1s1.3,1.2,0.5,3.6c0,0,2.9-1.6,5.1-4.4
		c3.2-4,5.1-10.1-3.6-15C22.5,16.8,16.7,13.8,17.8,10z"/>
	<path class="st0" d="M25,5.7c0,0-0.9-1.7-3.1-1.7c-1.7,0-2.1-0.9-2.1-0.9S19,1.7,15.3,1.7c-3.5,0-5.8,1.2-7.7,2.7
		c0,0,5.1-3.2,10.1,1.3H25z"/>
	<path class="st0" d="M3.9,16.3C4,11.1,8,5.5,16.7,5.8C8.2-1.4-6.4,14.6,5.7,23C5.7,23,3.6,20.2,3.9,16.3z"/>
	<path class="st0" d="M15.4,6.4C4.8,6.1,1.1,18.7,7.9,24.4l6.8,3.3c0,0,0.9-2.9-2.4-6.2S5.8,11.8,15,7.7C15,7.7,14.8,6.8,15.4,6.4z"
		/>
	<path class="st0" d="M16,9.2c0,0-0.5-0.5-0.7-0.9c-7.9,3.3-6.6,8.8-1.9,13.5c2.9,3,2,6.2,2,6.2s3.5,2.2,4.7,4.1c0,0,5.1-4.3-2-11.5
		C11.2,13.5,16,9.2,16,9.2z"/>
</g>
<g>
	<path d="M39.4,27.8c-1-0.3-1.9-0.7-2.5-1.3c-0.7-0.5-1-1.2-1-1.9v-3.1h0.5c0.3,1.9,1,3.4,1.9,4.2s2.3,1.3,3.9,1.3
		c1.1,0,2-0.3,2.7-0.8s1.1-1.3,1.1-2.2c0-0.8-0.3-1.5-0.8-2.1c-0.5-0.6-1.3-1.2-2.5-1.9l-3.6-2.1c-1.2-0.7-2.1-1.5-2.6-2.3
		c-0.5-0.8-0.8-1.7-0.8-2.8c0-1.5,0.5-2.7,1.6-3.6c1-0.9,2.4-1.4,4.1-1.4c1,0,2,0.1,3,0.4c1,0.3,1.8,0.7,2.4,1.2
		c0.6,0.5,1,1.2,1,1.9v3.1h-0.5c-0.3-1.9-1-3.3-1.9-4.2c-0.9-0.8-2.2-1.3-3.9-1.3c-0.9,0-1.7,0.3-2.4,0.8c-0.7,0.5-1,1.3-1,2.1
		c0,0.8,0.2,1.5,0.7,2c0.5,0.5,1.3,1.1,2.5,1.8l3.6,2.1c1.3,0.8,2.3,1.5,2.8,2.2c0.5,0.7,0.8,1.5,0.8,2.6c0,1.6-0.5,2.9-1.6,3.9
		s-2.6,1.5-4.4,1.5C41.5,28.2,40.5,28.1,39.4,27.8z"/>
	<path d="M52.5,17.5c0-1-0.1-1.7-0.4-2.2c-0.3-0.5-0.8-0.7-1.6-0.7h-0.6V14h2.6c0.7,0,1.3,0.1,1.6,0.3c0.4,0.2,0.6,0.5,0.8,1
		c0.2,0.5,0.2,1.2,0.2,2.2v10.2h-2.6V17.5z M52.4,11.7c-0.3-0.4-0.5-0.8-0.5-1.3c0-0.4,0.1-0.7,0.4-1c0.2-0.2,0.6-0.4,1-0.4
		c0.4,0,0.8,0.2,1.2,0.6s0.5,0.8,0.5,1.3c0,0.4-0.1,0.7-0.4,1c-0.2,0.2-0.6,0.4-1,0.4C53.1,12.2,52.8,12.1,52.4,11.7z"/>
	<path d="M59.7,17.5c0-1-0.1-1.7-0.4-2.2c-0.3-0.5-0.8-0.7-1.6-0.7H57V14h2.6c0.7,0,1.3,0.1,1.7,0.3s0.7,0.5,0.8,0.9h0.1
		c0.4-0.4,0.9-0.8,1.6-1c0.7-0.3,1.4-0.4,2.2-0.4c1.5,0,2.7,0.4,3.6,1.2c0.9,0.8,1.4,2.1,1.4,4.1v8.8h-2.6V19c0-1.4-0.3-2.4-0.9-3
		c-0.6-0.6-1.4-0.9-2.3-0.9c-1,0-2,0.5-2.9,1.5v11.2h-2.6V17.5z"/>
	<path d="M75.5,32.5c-1.2-0.7-1.7-1.9-1.7-3.4c0-0.9,0.3-1.7,0.9-2.3c0.6-0.7,1.4-1.1,2.3-1.5c-0.8-0.4-1.2-1-1.2-1.8
		c0-0.4,0.1-0.7,0.3-0.9c0.2-0.2,0.4-0.4,0.8-0.7c-0.6-0.3-1.1-0.8-1.6-1.5c-0.4-0.7-0.6-1.4-0.6-2.3c0-2.9,1.9-4.4,5.6-4.4h5.4v0.7
		l-1.9,0.3v0.1c0.6,0.3,1.1,0.7,1.5,1.3s0.6,1.2,0.6,1.9c0,2.9-1.9,4.4-5.6,4.4c-2,0-3.1,0.3-3.1,1c0,0.7,1,1,3.1,1
		c1.9,0,3.4,0.4,4.6,1.1c1.2,0.8,1.8,1.9,1.8,3.4c0,1.6-0.6,2.7-1.7,3.4c-1.2,0.7-2.7,1.1-4.7,1.1C78.2,33.6,76.7,33.2,75.5,32.5z
		 M83,31.6c0.7-0.6,1-1.4,1-2.5c0-1.9-1.2-3.1-3.5-3.4l-1.6-0.1c-0.8,0.3-1.4,0.8-1.8,1.3s-0.6,1.3-0.6,2.2c0,1.1,0.3,2,1,2.5
		s1.6,0.8,2.8,0.8S82.3,32.1,83,31.6z M82.3,20.6c0.5-0.5,0.8-1.4,0.8-2.6c0-1.1-0.3-1.9-0.8-2.5c-0.5-0.6-1.2-0.8-2.1-0.8
		c-0.9,0-1.6,0.3-2.1,0.8c-0.5,0.5-0.8,1.4-0.8,2.6c0,1.2,0.3,2,0.8,2.6c0.5,0.5,1.2,0.8,2.1,0.8C81.1,21.4,81.8,21.2,82.3,20.6z"/>
	<path d="M90.9,27.6c-0.6-0.3-1.2-0.7-1.7-1.3c-0.5-0.6-0.7-1.4-0.7-2.4c0-1.5,0.7-2.5,2.1-3.2c1.4-0.6,3.2-0.9,5.4-0.9h0.9
		c0-1.9-0.3-3.2-0.8-3.9c-0.5-0.7-1.3-1.1-2.3-1.1c-0.9,0-1.6,0.2-2.1,0.6c-0.5,0.4-0.9,1-1.1,1.9h-1.3c0-0.7,0-1.2,0.1-1.6
		c0.1-0.4,0.3-0.7,0.6-1.1c0.4-0.4,0.9-0.6,1.7-0.8s1.7-0.2,2.6-0.2c1.6,0,2.8,0.4,3.7,1.3c0.9,0.8,1.4,2.5,1.4,4.9v7.9H98l-1-1.3
		h-0.1c-0.4,0.4-0.9,0.8-1.5,1.1c-0.7,0.3-1.5,0.5-2.5,0.5C92.1,28,91.5,27.9,90.9,27.6z M95.7,26.2c0.4-0.3,0.8-0.7,1.2-1.3V21H96
		c-1.4,0-2.6,0.3-3.4,0.8s-1.3,1.2-1.3,2.1c0,0.9,0.3,1.6,0.8,2.1c0.5,0.5,1.2,0.7,2,0.7C94.7,26.7,95.3,26.5,95.7,26.2z"/>
	<path d="M104,17.5c0-1-0.1-1.7-0.4-2.2c-0.3-0.5-0.8-0.7-1.6-0.7h-0.6V14h2.6c0.7,0,1.3,0.1,1.7,0.3s0.6,0.5,0.8,1h0.1
		c0.4-0.4,0.8-0.8,1.5-1.1c0.6-0.3,1.5-0.5,2.5-0.5c1.7,0,3,0.7,3.9,2c0.9,1.4,1.4,3.1,1.4,5.1c0,2.1-0.5,3.8-1.4,5.1
		c-0.9,1.3-2.3,2-4.1,2c-0.7,0-1.4-0.1-2-0.2c-0.6-0.2-1.1-0.4-1.7-0.6v6.1H104V17.5z M112.2,25.2c0.6-1.1,0.9-2.5,0.9-4.4
		c0-1.8-0.3-3.2-0.8-4.3s-1.4-1.7-2.5-1.7c-1.3,0-2.3,0.6-3.1,1.8V26c0.6,0.3,1.1,0.5,1.5,0.6c0.4,0.2,0.8,0.2,1.3,0.2
		C110.6,26.8,111.6,26.3,112.2,25.2z"/>
	<path d="M121.5,27.1c-1-0.6-1.7-1.5-2.2-2.6c-0.5-1.1-0.8-2.3-0.8-3.6s0.3-2.5,0.8-3.6c0.5-1.1,1.2-2,2.2-2.6
		c1-0.6,2.1-0.9,3.4-0.9c1.3,0,2.5,0.3,3.4,0.9c1,0.6,1.7,1.5,2.2,2.6c0.5,1.1,0.8,2.3,0.8,3.6s-0.3,2.5-0.8,3.6
		c-0.5,1.1-1.2,2-2.2,2.6c-1,0.6-2.1,0.9-3.4,0.9C123.6,28,122.4,27.7,121.5,27.1z M126.8,26.1c0.6-0.5,1-1.2,1.3-2.2
		c0.3-0.9,0.5-1.9,0.5-3s-0.2-2.1-0.5-3c-0.3-0.9-0.7-1.6-1.3-2.2c-0.6-0.5-1.2-0.8-1.9-0.8s-1.4,0.3-1.9,0.8
		c-0.6,0.5-1,1.2-1.3,2.2c-0.3,0.9-0.5,1.9-0.5,3s0.2,2.1,0.5,3c0.3,0.9,0.7,1.6,1.3,2.2c0.6,0.5,1.2,0.8,1.9,0.8
		S126.3,26.6,126.8,26.1z"/>
	<path d="M135,17.5c0-1-0.1-1.7-0.4-2.2c-0.3-0.5-0.8-0.7-1.6-0.7h-0.3V14h2.3c0.7,0,1.3,0.1,1.7,0.3s0.6,0.5,0.8,1h0.1
		c0.4-0.4,0.8-0.8,1.4-1.1c0.6-0.3,1.3-0.5,2.1-0.5c0.8,0,1.4,0.1,1.8,0.4c0.3,0.3,0.7,0.7,1,1.3l-1.2,0.9c-0.2-0.3-0.5-0.5-0.9-0.7
		c-0.4-0.1-0.9-0.2-1.4-0.2c-0.6,0-1.1,0.1-1.6,0.4c-0.5,0.3-0.9,0.6-1.2,1.1v10.8H135V17.5z"/>
	<path d="M148.1,27.1c-0.9-0.6-1.6-1.5-2.1-2.6c-0.5-1.1-0.7-2.3-0.7-3.6c0-1.3,0.2-2.5,0.7-3.6c0.5-1.1,1.1-2,2-2.6
		c0.9-0.6,1.9-0.9,3.1-0.9c2,0,3.4,0.6,4.4,1.7c1,1.1,1.4,2.7,1.4,4.8l-0.1,1.2h-8.9c0,1.6,0.4,3,1.1,4c0.7,1,1.7,1.5,2.9,1.5
		c0.9,0,1.7-0.2,2.3-0.6s1.2-1,1.8-1.8l0.6,0.4c-0.6,1.1-1.4,1.9-2.3,2.3c-0.9,0.5-1.9,0.7-3,0.7C150.1,28,149,27.7,148.1,27.1z
		 M154.2,20.1c0-1.7-0.3-3-0.8-3.9c-0.5-0.9-1.3-1.3-2.3-1.3c-0.6,0-1.1,0.2-1.6,0.7c-0.5,0.5-0.8,1.1-1.1,1.9
		c-0.3,0.8-0.4,1.7-0.4,2.7H154.2z"/>
</g>
</svg>
