<?xml version="1.0" encoding="utf-8"?>
<!-- Generator: Adobe Illustrator 19.0.0, SVG Export Plug-In . SVG Version: 6.00 Build 0)  -->
<svg version="1.1" id="Layer_2" xmlns="http://www.w3.org/2000/svg" xmlns:xlink="http://www.w3.org/1999/xlink" x="0px" y="0px"
	 viewBox="0 0 200 49.5" style="enable-background:new 0 0 200 49.5;" xml:space="preserve">
<style type="text/css">
	.st0{fill:#DB0000;}
	.st1{font-family:'ChelaOne-Regular';}
	.st2{font-size:42px;}
</style>
<g>
	<path class="st0" d="M39.9,14.9c0,0,1.8,2.5-0.6,5.8c0,0-0.4-1.7-4.1-1.7h-4.5c-4.2,0-7.4-4-5.4-8.2c0,0-3,0.3-4-1.6
		s0.1-2.6,1.6-2.6s7.5,0,7.5,0c0,1.3,2.5,1.5,2.5,0h4.2c0,0,3.2,0,3.2,2.7c0,0-0.7-0.4-1.4-0.5v0.7c0,0,0.9,0.2,1.3,0.4
		s1,0.8,0.4,2.3c-0.6,1.5-0.8,2-0.8,2s-0.9-0.8-2.4-0.8h-1.7c-3,0-2.5,2.9,0.6,2.9C39.5,16.5,39.9,14.9,39.9,14.9z"/>
	<path class="st0" d="M24.1,11.8c0,0-1,0.1-1.8-0.6c0,0-6.7,5.2,3.3,15.8s2.3,17.4,2.3,17.4s1.8,1.7,0.8,5.1c0,0,4.2-2.3,7.3-6.3
		c4.6-5.8,7.4-14.6-5.2-21.6C30.7,21.6,22.4,17.4,24.1,11.8z"/>
	<path class="st0" d="M34.4,5.7c0,0-1.3-2.4-4.5-2.4c-2.5,0-3-1.3-3-1.3s-1.1-2-6.5-2c-5,0-8.3,1.7-11,3.9c0,0,7.3-4.5,14.5,1.8
		H34.4z"/>
	<path class="st0" d="M4,20.9c0.2-7.5,6-15.5,18.4-15.1C10.3-4.5-10.8,18.5,6.6,30.6C6.6,30.6,3.7,26.5,4,20.9z"/>
	<path class="st0" d="M20.6,6.7C5.4,6.2,0,24.4,9.8,32.6l9.8,4.8c0,0,1.3-4.1-3.5-9S6.8,14.5,20,8.5C20,8.5,19.7,7.3,20.6,6.7z"/>
	<path class="st0" d="M21.4,10.8c0,0-0.7-0.7-1-1.3c-11.3,4.7-9.5,12.7-2.8,19.4c4.1,4.3,2.9,8.8,2.9,8.8s5,3.1,6.8,5.9
		c0,0,7.3-6.2-2.8-16.5C14.5,16.9,21.4,10.8,21.4,10.8z"/>
</g>
<text transform="matrix(1 0 0 1 44.9238 40.4271)" class="st1 st2">Singapore</text>
</svg>
